<?xml version="1.0" encoding="UTF-8"?>
<svg id="Laag_1" data-name="Laag 1" xmlns="http://www.w3.org/2000/svg" version="1.1" viewBox="0 0 600 262.5">
  <defs>
    <style>
      .cls-1 {
        fill: none;
      }

      .cls-1, .cls-2, .cls-3 {
        stroke-width: 0px;
      }

      .cls-2 {
        fill: #1d1d1b;
      }

      .cls-3 {
        fill: #be1622;
      }
    </style>
  </defs>
  <g>
    <path class="cls-3" d="M173.5,42.4c1.7,1.6,2.6,3.1,2.6,4.6,0,3.1-2,4.6-6.1,4.6-2.5-1.2-4.6-2.1-6.2-2.9-1.6-.8-3.2-1.4-4.6-1.9-1.4-.5-2.9-.9-4.5-1.2s-3.6-.4-6.1-.4-6.9.7-11,2.2c-4,1.4-7.9,3.4-11.6,5.8s-6.8,5.3-9.4,8.5c-2.6,3.3-4,6.6-4.2,10.1,0,4,1.3,8,3.9,11.9s5.9,7.8,10,11.7c4,4,8.6,8,13.6,12.3,5,4.2,10,8.8,14.9,13.6,4.9,4.8,9.4,10,13.6,15.6,4.1,5.6,7.4,11.8,9.7,18.5,7.3,2.1,14.3,4.4,20.8,6.8,6.5,2.4,12.5,4.7,17.9,6.8,1.7,1.2,2.6,2.7,2.6,4.6,0,2.9-2,4.3-6.1,4.3-5-1.7-10.1-3.4-15.3-4.9-5.2-1.5-10.3-3.1-15.3-4.6,0,1.6.2,3.2.4,5.1.3,1.8.4,3.5.4,5.1,0,8.9-2,16.4-5.9,22.7-4,6.3-9.2,11.4-15.9,15.3-6.7,4-14.3,6.8-22.8,8.7-8.6,1.8-17.5,2.7-26.7,2.7s-14.9-.8-21.7-2.5c-6.8-1.6-12.7-4-17.8-7.2-5.1-3.2-9.1-7.2-12-12s-4.3-10.4-4.3-16.8,1.5-13.9,4.6-19.8,7.2-10.8,12.4-14.9c5.2-4,11.2-7.1,18.1-9.2,6.8-2.1,14-3.2,21.5-3.2s12.2.5,18.5,1.6c6.4,1.1,13.6,2.5,21.7,4.2-1.6-3.7-4.1-7.6-7.5-11.7-3.5-4.1-7.3-8.3-11.6-12.6-4.2-4.2-8.6-8.6-13-13.2-4.4-4.5-8.5-9.1-12.3-13.7-3.8-4.6-6.8-9.3-9.1-14-2.3-4.7-3.5-9.5-3.5-14.3s1.2-9,3.8-13c2.5-4,5.9-7.7,10.1-10.8,4.2-3.2,9-5.7,14.3-7.5,5.3-1.8,10.7-2.7,16.3-2.7,10.8,0,21.7,2.6,32.7,7.8ZM154.7,200.6c3.9-2.5,6.6-5.6,8.1-9.4,1.5-3.8,2.3-7.7,2.3-11.7s-.3-5.4-1-8.2c-.7-2.8-1.5-5.4-2.5-8l-8.7-1.7c-5.4-1-11-1.8-16.8-2.5-5.8-.7-11.7-1-17.6-1s-7.2.4-12.4,1.2c-5.2.8-10.3,2.2-15.3,4.3s-9.4,5-13,8.7c-3.7,3.7-5.5,8.5-5.5,14.5s1.2,8.6,3.5,11.8c2.3,3.3,5.4,5.9,9.1,8,3.8,2,8,3.5,12.6,4.3,4.6.9,9.3,1.3,13.9,1.3,8.3,0,16.3-1.1,24.1-3.3,7.8-2.2,14.2-5,19.2-8.2Z"/>
    <path class="cls-3" d="M279.3,142.5c2.3-2.9,4.3-4.3,6.1-4.3s3.2,1.8,3.2,5.5c-1.5,9.4-3,18.2-4.5,26.3-1.4,8.1-2.2,14.7-2.2,19.7s1.1,8.2,3.2,8.4c1.3.6,2.9.9,4.6.9,4.6,0,9.8-1.3,15.6-4,5.8-2.7,10.7-6.2,14.8-10.4,1.2-.4,2-.6,2.6-.6,1.3,0,2.5.5,3.5,1.4s1.4,2.1,1.4,3.5-.5,2.1-1.4,3.5c-9.8,8.1-18.3,13.7-25.4,16.9-7.1,3.2-13.2,4.8-18.2,4.8s-10-1.9-12.6-5.6c-2.6-3.8-3.9-8.5-3.9-14.3,0-10.6,1.4-20,4.3-28.2,2.9-8.2,5.9-16,9-23.3ZM294.4,112.8c1,1.5,1.4,3,1.4,4.3s-.5,3.2-1.6,4.5c-1.1,1.3-2.4,1.9-3.9,1.9s-2.9-.7-4.2-2.2c-1.3-1.4-1.9-2.8-1.9-4.2s.6-2.9,1.7-4c1.2-1.2,2.5-1.7,4-1.7s3.2.5,4.3,1.4Z"/>
    <path class="cls-3" d="M359.7,136.4c2.1.4,4,1.2,5.5,2.3l1.2-2.6c1.9-8.9,4-17.7,6.2-26.6,2.2-8.9,4.6-17.6,7.1-26.3.8-2.5,1.8-6.1,3-10.7,1.2-4.6,2.8-9.1,4.6-13.4,1.8-4.3,4.1-8.1,6.8-11.4,2.7-3.3,5.9-4.9,9.5-4.9s6.2,1.2,7.7,3.5c1.4,2.3,2.2,5.4,2.2,9.2s-.3,6-1,9.3c-.7,3.3-1.4,6.6-2.3,9.8-.9,3.3-1.8,6.5-2.9,9.5-1.1,3.1-2,5.9-2.7,8.4-2.7,8.1-5.9,16.5-9.5,25.3-3.7,8.8-8,17.5-13,26.2-1.4,7.3-2.7,14.6-3.9,21.8-1.3,7.2-2.5,14.5-3.6,21.8v-.6c-.2,1.9-.4,3.9-.6,5.8-.2,1.9-.3,3.9-.3,5.8,0,5,.8,9.2,2.3,12.4,2.1,0,4.6-1.2,7.5-3.5,2.9-2.3,5.8-5,8.7-8.1s5.5-6.1,8-9c2.4-2.9,4.2-4.9,5.3-6.1,1.4-1,2.5-1.4,3.5-1.4,3.1,0,4.6,1.6,4.6,4.6s-.4,2.4-1.2,3.8c-3.3,3.5-6.5,7-9.7,10.7-3.2,3.7-6.3,7-9.4,10.1-3.1,3.1-6.1,5.6-9,7.7-2.9,2-5.8,3-8.7,3s-5-.9-6.9-2.8-3.5-4.3-4.6-7.5c-1.2-3.2-2-6.9-2.5-11.3-.5-4.3-.7-9-.7-14v-5.5c0-1.7,0-3.5.3-5.2-2.3,3.1-5.1,6.6-8.4,10.6-3.3,4-6.6,7.7-10,11.3-3.4,3.6-6.7,6.6-10,9-3.3,2.4-6.2,3.6-8.7,3.6h-1.4c-3.3-1.7-5.6-3-6.8-3.8-1.3-.8-2.1-2.5-2.5-5.2,0-7.1,1.3-14.6,3.9-22.4,2.6-7.8,6-14.9,10.3-21.3,4.2-6.4,9-11.6,14.3-15.8,5.3-4.1,10.7-6.2,16.3-6.2h1.4ZM327.9,191.9c6-6.2,11.7-13.1,17.2-20.8,5.5-7.7,10.7-15.8,15.8-24.3-.6-.2-1.4-.3-2.3-.3h-.3c-9.2,4.2-16.1,10.5-20.5,18.6-4.4,8.2-7.7,17.1-9.8,26.7ZM374.7,184.7c-.2.2-.3.6-.3,1.2.2-.2.3-.6.3-1.2ZM400.5,75.1c0-.2,0-.3.1-.4,0,0,.1-.2.1-.4-.2.2-.3.5-.3.9v.3-.3Z"/>
    <path class="cls-3" d="M448.5,147.1c-1.9,4-4,8.1-6.2,12.1s-4.7,7.8-7.5,11.3c-2.8,3.5-5.9,6.5-9.2,9.1-3.4,2.6-7.2,4.5-11.4,5.6,0,4,.6,8,1.7,12,1.2,4,3.6,5.9,7.2,5.9s2,0,3-.3c1.1-.2,2.3-.8,3.6-1.7,1.2-.6,2.8-1.6,5.1-3.2,2.2-1.5,4.6-3.3,7.2-5.3,2.6-2,5.1-4.2,7.5-6.7s4.2-4.9,5.3-7.4c.6-1.4,1.4-2,2.6-2s2.6.6,3.8,1.7,1.7,2.5,1.7,4-1.2,3.5-3.5,6.4c-2.3,2.9-5,5.9-7.9,9-3,3.1-6.1,6-9.3,8.7-3.2,2.7-5.6,4.4-7.4,5.2-.6.2-2.3,1.1-5.1,2.6-2.8,1.5-5.2,2.3-7.1,2.3-4.2,0-7.9-.9-11-2.6-3.1-1.7-5.6-4-7.7-6.9s-3.5-6.2-4.5-10c-1-3.8-1.4-7.7-1.4-11.7-1.2-.6-1.7-1.6-1.7-3.2s.5-2.5,1.4-3.5c0-2.3,0-4.7.3-7.1s.7-4.9,1.4-7.4c1.2-4,2.8-8.9,4.8-14.5,2-5.6,4.6-10.9,7.7-16,3.1-5.1,6.7-9.4,11-13,4.2-3.6,9.1-5.4,14.5-5.4s9.1,1.8,11,5.4c1.9,3.6,2.9,7.7,2.9,12.3s-.2,5.3-.7,7.9c-.5,2.6-1.2,4.7-2.2,6.2ZM434.6,135c-1.9,1.5-3.9,3.8-5.8,6.8-1.9,3-3.7,6.2-5.2,9.7-1.5,3.5-3,7-4.3,10.7-1.3,3.7-2.4,7-3.2,10.1,2.3-2.1,5.2-6.2,8.7-12.1.8-1.4,1.7-3,2.9-5.1s2.2-4.2,3.2-6.7c1-2.4,1.8-4.8,2.6-7.1.8-2.3,1.2-4.4,1.2-6.4Z"/>
    <path class="cls-3" d="M456.6,192.2c-.2,0-.3,0-.4.1s-.3.1-.7.1c-1.6,0-2.8-.5-3.6-1.6-.9-1.1-1.3-2.3-1.3-3.6s.7-3.2,2-4.3c1.7-3.1,4-7.5,6.8-13.3,2.8-5.8,5.6-11.8,8.5-17.9,2.9-6.2,5.7-12,8.4-17.5,2.7-5.5,4.8-9.5,6.4-12,1.5-1.5,3.4-2.3,5.5-2.3s3.7.6,5.8,1.7c3.9,5.2,7.1,9.7,9.8,13.4,2.7,3.8,4.9,7.2,6.6,10.4,1.7,3.2,3,6.3,3.8,9.2.8,3,1.2,6.2,1.2,9.7s-.5,9-1.6,14.2c-1.1,5.2-2.4,11.8-3.9,19.9,4.6-1,9.2-2.3,13.6-4,4.4-1.7,8.9-3.5,13.3-5.2.8-.4,1.5-.6,2.3-.6,1.5,0,2.7.5,3.5,1.4s1.2,2,1.2,3.2-1.4,3.3-4.3,5.4-6.3,4.1-10.3,6.2c-4,2.1-8,4.1-12.3,5.9-4.2,1.8-7.6,3.2-10.1,4.2h-2.9c-3.5,0-6.2-1.7-8.2-5.1-2-3.4-3-6.5-3-9.4s.5-6.5,1.4-9.8,1.6-6.6,2-9.8c.6-4.2.9-8.1.9-11.6,0-5.2-.7-10-2-14.5-1.4-4.4-3.7-9.2-6.9-14.4-.8,1.2-1.9,3.1-3.5,5.9-1.5,2.8-3.2,6-5.1,9.7-1.8,3.7-3.8,7.5-5.9,11.4-2.1,4-4.2,7.7-6.2,11.1s-4,6.5-5.8,9c-1.8,2.5-3.4,4.1-4.8,4.6Z"/>
  </g>
  <g>
    <path class="cls-2" d="M215.7,45.8c0-.5.2-.9.5-1.2s.6-.4,1-.4c.6,0,.9.4,1.1,1.1v2.6c1.1-1.3,2.2-2.6,3.3-3.9,1.1-1.3,2.3-2.5,3.6-3.5,1.2-1,2.5-1.8,3.9-2.5,1.3-.6,2.7-1,4.2-1s1.8.2,2.7.5c3,1,5.1,2.5,6.3,4.5,1.2,2,1.8,4.2,1.8,6.6s-.3,3.9-.8,5.9c-.6,2-1.3,3.9-2.1,5.6-.9,1.8-1.8,3.3-2.8,4.7-1,1.4-1.9,2.5-2.7,3.2-1,.8-2.2,1.6-3.7,2.2-1.5.7-3,1-4.5,1s-2-.2-3-.6-1.9-1.1-2.6-2c0-.5.2-.8.5-1.2.3-.3.6-.5.9-.5s.8.2,1.1.7c.5.2,1,.3,1.5.4.5.1.9.2,1.5.2,1.5,0,2.9-.4,4.2-1.3,1.3-.8,2.5-1.9,3.5-3.1,1-1.2,1.9-2.6,2.7-4,.7-1.4,1.3-2.7,1.7-4,.4-1.1.6-2.1.8-3.2.2-1.1.2-2.1.2-3,0-2.3-.5-4.1-1.4-5.6-.9-1.4-2.3-2.2-4.1-2.2s-2.8.4-4.2,1.1-2.8,1.8-4.2,3c-1.3,1.2-2.6,2.6-3.8,4.2-1.2,1.6-2.3,3.1-3.2,4.7.3,2.3.5,4.3.6,6.2.2,1.8.2,3.7.2,5.6s-.2,4.9-.5,7.4c-.3,2.4-.9,4.6-1.6,6.5-.7,1.9-1.6,3.4-2.7,4.6-1.1,1.2-2.4,1.8-3.9,1.8s-3.4-.8-4.2-2.4c-.7-1.6-1.1-3.9-1.1-6.8s0-3.1.2-4.5c.2-1.4.3-2.4.5-3,.5-1.7,1.1-3.3,1.8-4.8.7-1.6,1.4-3.1,2.1-4.6.8-1.5,1.6-3,2.4-4.6.9-1.6,1.8-3.2,2.7-4.8,0-1,0-1.9,0-2.8s0-1.9,0-2.8ZM215.7,72.2c0-1,.1-1.9.2-2.7,0-.8.1-1.6.2-2.3,0-.7.1-1.5.2-2.2,0-.7,0-1.5,0-2.4s0-.7,0-1.1c0-.4,0-.7,0-1.1-.7,1.5-1.4,3-2.1,4.5-.7,1.6-1.4,3.1-2,4.8-.6,1.6-1.1,3.3-1.5,5-.4,1.7-.6,3.4-.6,5s.1,2.1.4,2.7c.3.6.6.8.9.8s.8-.3,1.3-.9c.5-.6,1-1.4,1.4-2.4.4-1,.8-2.1,1.1-3.5.3-1.3.5-2.7.6-4.1Z"/>
    <path class="cls-2" d="M236.4,78.8c0,0,0,0-.1,0s0,0-.2,0c-.4,0-.7-.1-1-.4-.2-.3-.3-.6-.3-1s.2-.8.5-1.1c.5-.8,1.1-2,1.8-3.5.7-1.5,1.5-3.1,2.3-4.7.8-1.6,1.5-3.2,2.2-4.6.7-1.5,1.3-2.5,1.7-3.2.4-.4.9-.6,1.5-.6s1,.2,1.5.5c1,1.4,1.9,2.6,2.6,3.5.7,1,1.3,1.9,1.8,2.7.5.8.8,1.7,1,2.4.2.8.3,1.6.3,2.6s-.1,2.4-.4,3.7c-.3,1.4-.6,3.1-1,5.3,1.2-.3,2.4-.6,3.6-1.1,1.2-.5,2.3-.9,3.5-1.4.2-.1.4-.2.6-.2.4,0,.7.1.9.4.2.3.3.5.3.8s-.4.9-1.1,1.4-1.7,1.1-2.7,1.6c-1,.6-2.1,1.1-3.2,1.6-1.1.5-2,.9-2.7,1.1h-.8c-.9,0-1.6-.4-2.2-1.3-.5-.9-.8-1.7-.8-2.5s.1-1.7.4-2.6c.3-.9.4-1.7.5-2.6.2-1.1.2-2.1.2-3.1,0-1.4-.2-2.6-.5-3.8-.4-1.2-1-2.4-1.8-3.8-.2.3-.5.8-.9,1.6-.4.7-.9,1.6-1.3,2.6s-1,2-1.6,3c-.6,1-1.1,2-1.6,2.9-.5.9-1,1.7-1.5,2.4-.5.7-.9,1.1-1.3,1.2Z"/>
    <path class="cls-2" d="M271.4,66.9c-.5,1.1-1.1,2.1-1.6,3.2-.6,1.1-1.2,2.1-2,3-.7.9-1.6,1.7-2.4,2.4-.9.7-1.9,1.2-3,1.5,0,1.1.2,2.1.5,3.2.3,1,.9,1.6,1.9,1.6s.5,0,.8,0c.3,0,.6-.2,1-.5.3-.2.8-.4,1.3-.8.6-.4,1.2-.9,1.9-1.4.7-.5,1.3-1.1,2-1.8.6-.6,1.1-1.3,1.4-1.9.2-.4.4-.5.7-.5s.7.2,1,.5c.3.3.5.7.5,1.1s-.3.9-.9,1.7c-.6.8-1.3,1.6-2.1,2.4-.8.8-1.6,1.6-2.4,2.3-.8.7-1.5,1.2-1.9,1.4-.2,0-.6.3-1.3.7-.7.4-1.4.6-1.9.6-1.1,0-2.1-.2-2.9-.7-.8-.5-1.5-1.1-2-1.8-.5-.8-.9-1.6-1.2-2.6-.3-1-.4-2-.4-3.1-.3-.2-.5-.4-.5-.8s.1-.7.4-.9c0-.6,0-1.2,0-1.9,0-.6.2-1.3.4-1.9.3-1.1.7-2.3,1.3-3.8.5-1.5,1.2-2.9,2-4.2.8-1.3,1.8-2.5,2.9-3.4,1.1-.9,2.4-1.4,3.8-1.4s2.4.5,2.9,1.4c.5.9.8,2,.8,3.2s0,1.4-.2,2.1c-.1.7-.3,1.2-.6,1.6ZM267.8,63.7c-.5.4-1,1-1.5,1.8-.5.8-1,1.6-1.4,2.6-.4.9-.8,1.9-1.1,2.8-.4,1-.6,1.9-.8,2.7.6-.6,1.4-1.6,2.3-3.2.2-.4.5-.8.8-1.3.3-.5.6-1.1.8-1.8.3-.6.5-1.3.7-1.9.2-.6.3-1.2.3-1.7Z"/>
    <path class="cls-2" d="M279.7,72.2c.2-1.7.3-3.3.6-4.9.2-1.6.5-3.2.9-4.8-1.8.4-3.1.8-3.9,1.1-.8.3-1.4.5-1.8.5-.6,0-.9-.4-.9-1.2s.5-1.5,1.5-2.2,2.1-1.3,3.5-1.9c.8-.7,1.4-1.4,1.9-1.9.5-.6.8-1.2,1.1-1.8.3-.6.6-1.3.8-2.1s.5-1.7.8-2.7c.2-.5.3-1.2.6-2.3.2-1,.5-2.1.9-3.2.4-1.1.9-2,1.4-2.8.6-.8,1.2-1.2,2.1-1.2s1.2.4,1.2,1.1,0,1-.2,1.7c-.2.7-.4,1.7-.6,2.9-.3,1.2-.6,2.6-1,4.3-.4,1.7-.8,3.7-1.3,6.1.5,0,1,0,1.5,0s.9,0,1.4,0h2c.8,0,1.6,0,2.3.1.7,0,1.4.2,1.9.4.5.2.8.5.8,1s-.4.8-1.3,1.1-1.9.6-3.1.8c-1.2.3-2.4.5-3.6.7-1.2.2-2.2.5-2.8.7-.6,2.4-1,5-1.5,7.8-.4,2.8-.6,5.4-.6,7.8s0,.7,0,1.2c0,.5,0,1,0,1.6,0,.5,0,1,.2,1.4,0,.4.2.6.3.6.6,0,1.7-.8,3.5-2.5,1.8-1.7,3.6-4,5.6-7.1.3-.3.6-.4.9-.4s.7.1.9.3c.3.2.4.5.4.9s-.1.6-.4.9c-.7,1.4-1.6,2.8-2.6,4.3-1,1.5-2,2.8-3.1,4-1.1,1.2-2.1,2.1-3.2,2.9s-2.1,1.1-3,1.1-1.6-.3-2.1-.9c-.5-.6-1-1.3-1.3-2.2-.3-.9-.6-1.8-.7-2.7-.1-1-.2-1.8-.2-2.6s0-2,.1-3c0-1,.2-1.9.3-2.7Z"/>
    <path class="cls-2" d="M297.3,72.2c.2-1.7.3-3.3.6-4.9.2-1.6.5-3.2.9-4.8-1.8.4-3.1.8-3.9,1.1-.8.3-1.4.5-1.8.5-.6,0-.9-.4-.9-1.2s.5-1.5,1.5-2.2,2.1-1.3,3.5-1.9c.8-.7,1.5-1.4,1.9-1.9.5-.6.8-1.2,1.1-1.8.3-.6.6-1.3.8-2.1s.5-1.7.8-2.7c.2-.5.3-1.2.6-2.3.2-1,.5-2.1.9-3.2.4-1.1.9-2,1.4-2.8.6-.8,1.2-1.2,2.1-1.2s1.2.4,1.2,1.1,0,1-.2,1.7c-.2.7-.4,1.7-.6,2.9-.3,1.2-.6,2.6-1,4.3-.4,1.7-.8,3.7-1.3,6.1.5,0,1,0,1.5,0s.9,0,1.4,0h2c.8,0,1.6,0,2.3.1.7,0,1.4.2,1.9.4.5.2.8.5.8,1s-.4.8-1.3,1.1-1.9.6-3.1.8c-1.2.3-2.4.5-3.6.7-1.2.2-2.2.5-2.8.7-.6,2.4-1,5-1.5,7.8-.4,2.8-.6,5.4-.6,7.8s0,.7,0,1.2c0,.5,0,1,0,1.6,0,.5,0,1,.2,1.4,0,.4.2.6.3.6.6,0,1.7-.8,3.5-2.5,1.8-1.7,3.6-4,5.6-7.1.3-.3.6-.4.9-.4s.7.1.9.3c.3.2.4.5.4.9s-.1.6-.4.9c-.7,1.4-1.6,2.8-2.6,4.3-1,1.5-2,2.8-3.1,4-1.1,1.2-2.1,2.1-3.2,2.9s-2.1,1.1-3,1.1-1.6-.3-2.1-.9c-.5-.6-1-1.3-1.3-2.2-.3-.9-.6-1.8-.7-2.7s-.2-1.8-.2-2.6,0-2,.1-3c0-1,.2-1.9.3-2.7Z"/>
    <path class="cls-2" d="M313,64.8c0-.4.2-.7.5-.9.3-.2.5-.3.8-.3.8,0,1.2.6,1.2,1.8s-.1,3-.3,4.5c-.2,1.5-.3,3-.3,4.5s0,1.1,0,1.6c0,.5.1,1,.3,1.6,1.3-1,2.3-2.1,3-3.3.7-1.2,1.4-2.5,1.9-3.8.5-1.3,1-2.7,1.3-4,.4-1.4.9-2.8,1.4-4.2.5-.9,1.2-1.3,2.1-1.3s1.4.4,1.7,1.1c.3.7.4,1.7.4,3s0,2.7-.1,4.1c0,1.4-.1,2.7-.1,4.1v1.5c1.4-.8,2.8-1.5,4.4-2.2,1.6-.7,3.1-1,4.5-1s1.2.1,1.6.3.7.7.7,1.3-.1,1-.4,1.3c-.3.3-.6.4-.9.4-.6,0-.9-.3-1.1-.8h-.5c-1.5.4-2.9,1-4.3,1.7-1.4.7-2.7,1.5-4,2.4,0,.8,0,1.5,0,2.3,0,.7,0,1.5,0,2.2,0,3.2-.2,6.4-.5,9.5-.3,3.1-1,6.3-2,9.5-.4,1.1-.8,2.3-1.4,3.4-.6,1.1-1.2,2.2-2,3.1-.8.9-1.6,1.7-2.6,2.3s-2.1.9-3.3.9-2.5-.3-3.5-.9-1.8-1.4-2.6-2.4c-.7-1-1.2-2.1-1.6-3.3-.4-1.2-.5-2.4-.5-3.6,0-2.7.4-5.2,1.2-7.5.8-2.3,1.9-4.4,3.3-6.4,1.4-1.9,3-3.7,4.9-5.3,1.9-1.6,3.8-3.1,5.9-4.5v-1.5c0-.5,0-.9,0-1.4,0,0-.2.2-.4.5-.2.3-.4.7-.7,1.2s-.6.9-.9,1.3c-.3.4-.5.7-.7.8l-2.8,2c-.5.4-1.1.5-1.7.5s-1.3-.2-1.7-.5c-.4-.3-.8-.8-1-1.3-.3-.5-.4-1.1-.5-1.8,0-.7-.1-1.3-.1-2,0-1.8.2-3.5.5-5.3.4-1.8.6-3.5.7-5.3ZM322,90c.2-2,.2-3.9.2-5.9v-2.5c-3.3,2.6-5.8,5.5-7.7,8.6-1.9,3.1-3,6.6-3.2,10.3,0,.5,0,1,.2,1.8.1.7.3,1.4.6,2,.3.6.6,1.2,1.1,1.7.4.5,1,.7,1.6.7s1.3-.2,1.8-.7c.5-.5,1-1.1,1.3-1.8s.7-1.4,1-2.1c.3-.7.5-1.4.6-1.9.5-1.4,1-2.9,1.4-4.7.4-1.8.7-3.6,1-5.5Z"/>
  </g>
  <g>
    <path class="cls-1" d="M220,155.2c2.7-3.9,5-7.9,6.9-12.1,1.9-4.2,3.8-8.6,5.5-13,1.9-4.6,4-10.1,6.4-16.3.9-2.6-18.4,24.6-18.8,41.5Z"/>
    <path class="cls-3" d="M279.3,168.9c-1-.9-2.1-1.3-3.5-1.3s-2,.4-3.3,1.3-.2.1-.3.2c-5.6,6.9-11.8,12.7-18.7,17.4-6.8,4.6-14.4,7.8-22.9,9.6s-.7,0-1-.2c-4.2-2.9-6.7-6.7-7.7-11.4-.9-4.7-1.5-9.5-1.7-14.3s.1-.7.4-1c3-2.6,5.9-5.8,8.9-9.6,2.2-2.9,4.4-6,6.6-9.5,5.2-8.4,10.5-17,14-26.7s2.6-25.1,1-28.6c-2-4.2-5.7-6.4-11.1-6.4s-4.4.8-6.9,2.3c-6.2,3.5-11.7,8.6-16.5,15.2-1.7,2.4-8.5,12.8-10.7,23.1s-2.3,21.1-2.3,28.2,0,1.6,0,2.5c.2,16.1,2.6,28.4,7.2,36.9,4.8,8.9,11.3,13.3,19.4,13.3s9.1-1.1,13.9-3.3c4.8-2.2,9.5-5.1,14-8.5,4.5-3.5,8.7-7.3,12.6-11.4,3.9-4.1,7-8,9.5-11.7.4-.8.6-1.5.6-2.3,0-1.5-.5-2.8-1.4-3.6ZM221.4,138c1.6-6.6,4-11.6,5.7-15.5,2.4-5.2,4.1-8.8,8.2-11.2s1.9.1,1.8,1.1-.1,2.4-.2,3.6c-.2,2.4-.8,4.8-1.6,7.1s-1.9,4.8-2.8,7c-1.7,4.4-3.6,8.8-5.5,13-1.4,3-2.9,5.9-4.7,8.7s-2.2.6-2.2-.6c0-4.1-.1-7.9,1.3-13.2Z"/>
  </g>
</svg>